Coordinates
version=1
nRows=14
nColumns=40
inDegrees=yes

Units are S.I. units (second, meters, Newtons, ...)
Angles are in degrees.

endheader
time	pelvis_tilt	pelvis_list	pelvis_rotation	pelvis_tx	pelvis_ty	pelvis_tz	hip_flexion_r	hip_adduction_r	hip_rotation_r	knee_angle_r	knee_angle_r_beta	ankle_angle_r	subtalar_angle_r	mtp_angle_r	hip_flexion_l	hip_adduction_l	hip_rotation_l	knee_angle_l	knee_angle_l_beta	ankle_angle_l	subtalar_angle_l	mtp_angle_l	lumbar_extension	lumbar_bending	lumbar_rotation	arm_flex_r	arm_add_r	arm_rot_r	elbow_flex_r	pro_sup_r	wrist_flex_r	wrist_dev_r	arm_flex_l	arm_add_l	arm_rot_l	elbow_flex_l	pro_sup_l	wrist_flex_l	wrist_dev_l
     33.44042857	     -4.21322559	     -3.59431535	      7.88088963	      1.04076636	      0.90718907	      0.58417528	     16.27318970	      3.22328684	    -10.08085080	     32.36751731	     32.36751731	     20.76587766	    -12.11569658	      0.66140885	     32.81259204	    -13.90389013	      8.19327618	     61.61087126	     61.61087126	      7.52794004	    -17.73880945	      6.61344378	    -10.73931299	      2.54893534	      0.84899216	     37.85885492	    -27.48099269	    -13.00640849	     77.31654292	     45.50519937	      0.00000000	      0.00000000	    -15.83173713	     -7.91959480	     16.00308531	     26.73237930	     42.97313385	      0.00000000	      0.00000000
     33.46335714	     -4.13408908	     -3.49540983	      8.72710951	      1.03991591	      0.90749540	      0.58438239	     15.76242171	      3.18970457	    -10.44036445	     32.10226942	     32.10226942	     20.87684918	    -12.61589479	      0.83009788	     33.63541259	    -13.38882977	      8.50260956	     59.29401048	     59.29401048	      7.90825897	    -18.18174094	      7.12981295	    -10.71342086	      2.64656823	      1.09945572	     40.39440397	    -27.00850026	    -13.12963979	     77.74056942	     45.50433036	      0.00000000	      0.00000000	    -16.85601342	     -7.57757642	     17.38511703	     27.06245794	     42.76428052	      0.00000000	      0.00000000
     33.48628571	     -4.36010697	     -3.38258294	      9.52953438	      1.03903800	      0.90827238	      0.58416083	     15.43541219	      3.03779428	    -10.90091038	     31.59318074	     31.59318074	     20.87383087	    -12.82993455	      0.96859561	     34.36833396	    -12.84187301	      8.47395657	     56.01400339	     56.01400339	      8.19012856	    -18.20025531	      7.47128813	    -10.34540365	      2.65663479	      1.87519335	     42.38815797	    -27.27757898	    -13.24421240	     78.27389054	     45.49957224	      0.00000000	      0.00000000	    -17.40027490	     -7.14220955	     17.71999793	     27.13883274	     42.70935762	      0.00000000	      0.00000000
     33.50921429	     -4.36163947	     -3.24130800	     10.30126238	      1.03844666	      0.91031983	      0.58360553	     14.53816747	      2.90558222	    -11.46564211	     30.49235151	     30.49235151	     20.47616946	    -12.80145812	      0.62091192	     34.21119864	    -12.26494197	      8.27526932	     51.55299055	     51.55299055	      7.43757761	    -18.36257926	      5.66461784	    -10.12732389	      2.70901970	      1.28966495	     46.00822075	    -25.83498373	    -12.09350370	     76.80310278	     45.51604771	      0.00000000	      0.00000000	    -19.09420068	     -7.96606164	     24.29392331	     30.12896456	     41.86025574	      0.00000000	      0.00000000
     33.53214286	     -4.58198213	     -3.05099468	     10.98693234	      1.03784320	      0.91276437	      0.58262896	     13.76327659	      2.65694501	    -12.05174735	     29.23523911	     29.23523911	     20.17491219	    -12.42548377	      0.82176510	     33.92163258	    -11.50893595	      7.98531432	     46.59386606	     46.59386606	      7.17533972	    -17.89850937	      5.99562460	     -9.82250515	      2.62185650	      1.69695136	     47.88546441	    -25.68961481	    -12.00481007	     78.09846349	     45.47814479	      0.00000000	      0.00000000	    -19.49703123	     -7.54846137	     24.95057474	     30.17273153	     41.80513602	      0.00000000	      0.00000000
     33.55507143	     -4.90337959	     -2.85055895	     11.53458293	      1.03736578	      0.91540666	      0.58145016	     13.02096175	      2.38802267	    -12.59799280	     27.84791750	     27.84791750	     19.76332468	    -11.91465194	      1.01340225	     33.36108495	    -10.77967406	      7.46804398	     41.21630078	     41.21630078	      6.68873445	    -16.76196174	      6.29519510	     -9.36688553	      2.46551716	      2.13409184	     49.74725078	    -25.50261788	    -11.75830387	     79.08161024	     45.44568392	      0.00000000	      0.00000000	    -19.84160651	     -7.19170208	     25.42428281	     30.30312575	     41.76085001	      0.00000000	      0.00000000
     33.57800000	     -5.26555456	     -2.71112989	     11.98642457	      1.03697402	      0.91795240	      0.58007127	     12.29724972	      2.15918531	    -13.17922491	     26.40391269	     26.40391269	     19.29048705	    -11.22622752	      1.16139719	     32.65803642	    -10.13232319	      6.83401179	     35.78998644	     35.78998644	      6.07138070	    -14.91574190	      6.58948167	     -8.88081589	      2.33702888	      2.48184754	     51.66454485	    -25.25953516	    -11.38089747	     80.04556847	     45.41004946	      0.00000000	      0.00000000	    -20.12684633	     -6.85806559	     25.84735384	     30.49195230	     41.71969231	      0.00000000	      0.00000000
     33.60092857	     -5.29233831	     -2.62304100	     12.34318995	      1.03701088	      0.92051924	      0.57839754	     11.09064504	      1.99455003	    -14.09699546	     24.76437195	     24.76437195	     18.40392700	    -10.01579721	     -0.54941317	     31.30011506	     -9.70284814	      5.95795755	     30.13694173	     30.13694173	      3.69267576	    -12.89954684	      2.56841720	     -8.74170549	      2.42274445	      2.34969955	     54.00218595	    -24.88580528	     -9.31049999	     80.62117298	     45.34025959	      0.00000000	      0.00000000	    -20.83546886	     -7.20956475	     29.13695421	     32.23596243	     41.50618124	      0.00000000	      0.00000000
     33.62385714	     -5.47680305	     -2.55777246	     12.55979765	      1.03705874	      0.92252282	      0.57671608	     10.23808222	      1.91694807	    -14.50125158	     23.45826335	     23.45826335	     18.05625998	     -9.27712186	     -0.39616731	     30.36565830	     -9.21667753	      5.17181626	     25.52405357	     25.52405357	      3.23009086	    -10.00714708	      3.56088222	     -8.41832238	      2.35624705	      2.66551294	     55.55967272	    -24.45788717	     -9.06291563	     81.55768947	     45.30924109	      0.00000000	      0.00000000	    -21.02462691	     -6.98914709	     29.47637549	     32.35356122	     41.49566821	      0.00000000	      0.00000000
     33.64678571	     -5.55704891	     -2.63269607	     12.68305276	      1.03725594	      0.92385360	      0.57495919	      9.34558005	      1.93483303	    -15.18810905	     22.27609723	     22.27609723	     17.78471655	     -8.00072482	     -0.76316823	     29.71027004	     -9.03856629	      3.95307098	     22.03921582	     22.03921582	      3.27280636	     -6.22434923	      4.72835860	     -8.21695934	      2.48260801	      2.77741490	     57.18975624	    -23.94411629	     -8.15840235	     82.59096704	     45.25772104	      0.00000000	      0.00000000	    -21.25962911	     -6.91038567	     30.27644748	     32.83268938	     41.49722425	      0.00000000	      0.00000000
     33.66971429	     -5.60442240	     -2.62187123	     12.68908868	      1.03755407	      0.92464090	      0.57305787	      8.59824762	      1.90743655	    -15.42555973	     21.46381742	     21.46381742	     17.66790959	     -7.34606568	     -0.82086970	     29.02616982	     -8.68272800	      3.15668763	     19.12989230	     19.12989230	      2.99806037	     -3.71224637	      5.58553910	     -8.05517854	      2.47116666	      3.00395049	     58.50504307	    -23.47302434	     -7.64793871	     83.33603448	     45.22445952	      0.00000000	      0.00000000	    -21.32135553	     -6.84311554	     30.56621775	     33.04651226	     41.50100133	      0.00000000	      0.00000000
     33.69264286	     -5.72236426	     -2.74494038	     12.62008990	      1.03789894	      0.92453663	      0.57099141	      8.10650778	      1.96070811	    -15.64422975	     20.95654127	     20.95654127	     17.71477443	     -6.78151431	     -0.92942528	     28.68207121	     -8.46411439	      2.47243419	     17.11043581	     17.11043581	      2.88649170	     -1.77342319	      6.03677423	     -7.77994865	      2.60105891	      3.21283271	     59.65194727	    -22.96275902	     -7.17855266	     84.02147421	     45.19317487	      0.00000000	      0.00000000	    -21.27559313	     -6.80970745	     30.74793942	     33.21939179	     41.50519940	      0.00000000	      0.00000000
     33.71557143	     -5.56242534	     -2.79213874	     12.50461359	      1.03854112	      0.92426101	      0.56884342	      7.31160663	      1.96688079	    -15.88469978	     20.53770125	     20.53770125	     17.93658899	     -5.91205419	     -1.21327990	     28.33156047	     -8.36499229	      1.46339754	     16.10694536	     16.10694536	      2.85629158	      0.24378915	      5.97507625	     -7.85695909	      2.64590151	      3.12212887	     60.35797497	    -22.24666317	     -6.34430871	     84.74963060	     45.14918281	      0.00000000	      0.00000000	    -21.30762621	     -6.89801416	     31.09472438	     33.46055178	     41.51727299	      0.00000000	      0.00000000
     33.73850000	     -5.59998474	     -2.95934114	     12.37718431	      1.03913041	      0.92299653	      0.56641374	      6.98404449	      2.05738138	    -15.81846494	     20.53709968	     20.53709968	     18.34574729	     -5.88767572	     -1.35657157	     28.45518569	     -8.20795799	      1.39132110	     15.91937138	     15.91937138	      2.92126994	      0.37190679	      5.92894242	     -7.59436377	      2.69528846	      3.31684860	     60.55992597	    -22.01769114	     -6.23011715	     84.87416411	     45.14245577	      0.00000000	      0.00000000	    -21.14553928	     -7.00723885	     31.08294498	     33.49162979	     41.52409037	      0.00000000	      0.00000000
